<svg width="24" height="24" viewBox="0 0 24 24" fill="none" xmlns="http://www.w3.org/2000/svg">
<path d="M19.2069 9.95347C17.4042 3.5015 14.1199 1.85877 12.6928 1.44369C12.2403 1.31206 11.7596 1.31206 11.3071 1.44369C9.88003 1.85867 6.59569 3.5015 4.79297 9.95338C4.79297 9.95338 1.77215 19.7206 9.21459 22.2031C11.0227 22.8052 12.9772 22.8052 14.7853 22.2031C22.2277 19.7207 19.2069 9.95347 19.2069 9.95347Z" fill="url(#paint0_linear_64_64)"/>
<path d="M8.83667 6.02025C8.53545 6.32372 8.21154 6.84558 7.89485 7.71215C7.81346 7.92971 7.77185 8.16012 7.77199 8.3924C7.77579 8.82234 7.93221 9.3652 8.73898 9.20358C8.73898 9.20358 11.237 8.77851 10.4181 6.3885C10.1892 5.72072 9.33396 5.5193 8.83667 6.02025ZM8.64776 10.7456C8.36904 10.7872 7.9947 10.8698 7.67745 11.0322C7.53933 11.1008 7.42019 11.2023 7.3305 11.3277C7.24082 11.4532 7.18335 11.5987 7.16313 11.7516C7.16215 11.76 7.16131 11.7683 7.16056 11.7768C7.1507 11.8915 7.17193 12.0068 7.22203 12.1105C7.27212 12.2142 7.34922 12.3024 7.44523 12.366C7.54124 12.4296 7.6526 12.4662 7.76762 12.4718C7.88264 12.4775 7.99706 12.4521 8.09885 12.3982C8.52307 12.1779 9.11435 11.7778 9.17464 11.2404C9.18104 11.171 9.17153 11.1011 9.14683 11.0359C9.12212 10.9707 9.08287 10.912 9.03206 10.8643C8.98126 10.8166 8.92023 10.7811 8.85364 10.7605C8.78704 10.7399 8.71663 10.7348 8.64776 10.7456Z" fill="white"/>
<defs>
<linearGradient id="paint0_linear_64_64" x1="15.6311" y1="20.1416" x2="8.82155" y2="7.70277" gradientUnits="userSpaceOnUse">
<stop stop-color="#FF9C69"/>
<stop offset="0.995" stop-color="#FFCCAC"/>
</linearGradient>
</defs>
</svg>
