<svg xmlns="http://www.w3.org/2000/svg" enable-background="new 0 0 40 40" viewBox="0 0 40 40" id="equity-bank">
  <switch>
    <g>
      <g>
        <polygon fill="#a8202a" points="18.5 10 9 17 9 15 4 15 4 23 9 23 18.5 16 28 23 36 23"></polygon>
        <path d="M22,25h1v5h-1V25z M24,26h2v4h1v-4h2v-1h-5V26z M33.8,25l-1.2,1.5L31.2,25H30l2,2.5V30h1v-2.5l2-2.5H33.8z M5,30h4v-1H6
				v-1h2v-1H6v-1h3v-1H5V30z M20,25v2.5c0,0.8-0.7,1.5-1.5,1.5h0c-0.8,0-1.5-0.7-1.5-1.5V25h-1v2.5c0,1.4,1.1,2.5,2.5,2.5h0
				c1.4,0,2.5-1.1,2.5-2.5V25H20z M15.5,30l-1-1c0.3-0.4,0.5-0.9,0.5-1.5c0-1.4-1.1-2.5-2.5-2.5S10,26.1,10,27.5s1.1,2.5,2.5,2.5
				c0.5,0,1-0.1,1.3-0.4l0.4,0.4H15.5z M12.5,29c-0.8,0-1.5-0.7-1.5-1.5c0-0.8,0.7-1.5,1.5-1.5s1.5,0.7,1.5,1.5
				c0,0.3-0.1,0.6-0.2,0.8l-1-1l-0.6,0.6l1,1C12.9,29,12.7,29,12.5,29z"></path>
      </g>
    </g>
  </switch>
</svg>
